<?xml version="1.0" standalone="no"?>
<!DOCTYPE svg PUBLIC "-//W3C//DTD SVG 20010904//EN"
 "http://www.w3.org/TR/2001/REC-SVG-20010904/DTD/svg10.dtd">
<svg version="1.0" xmlns="http://www.w3.org/2000/svg"
 width="1118.000000pt" height="1118.000000pt" viewBox="0 0 1118.000000 1118.000000"
 preserveAspectRatio="xMidYMid meet">
<metadata>
Created by potrace 1.14, written by Peter Selinger 2001-2017
</metadata>
<g transform="translate(0.000000,1118.000000) scale(0.100000,-0.100000)"
fill="#000000" stroke="none">
<path d="M4077 9004 c-1 -1 -63 -4 -137 -8 -74 -4 -146 -8 -160 -11 -14 -2
-52 -6 -85 -10 -77 -7 -286 -42 -360 -59 -36 -9 -85 -22 -195 -53 -560 -158
-1099 -474 -1519 -892 -453 -450 -778 -1016 -936 -1628 -19 -73 -37 -147 -40
-165 -3 -18 -8 -40 -10 -48 -2 -8 -7 -37 -11 -65 -3 -27 -8 -52 -9 -55 -2 -3
-7 -33 -10 -65 -4 -33 -9 -62 -10 -65 -18 -30 -27 -556 -13 -725 56 -661 286
-1275 680 -1813 73 -98 72 -97 169 -212 249 -293 606 -586 948 -778 95 -53
275 -141 361 -177 36 -14 79 -32 95 -40 36 -15 212 -75 238 -80 9 -2 21 -6 25
-9 5 -3 65 -19 133 -37 127 -32 142 -35 194 -44 17 -3 37 -8 45 -10 8 -2 35
-7 60 -10 25 -3 52 -8 60 -10 8 -2 44 -7 80 -10 36 -3 72 -8 80 -10 89 -22
664 -22 750 0 8 2 42 6 75 10 77 8 314 50 385 69 145 38 209 56 250 71 25 9
52 18 61 20 9 2 65 22 125 45 287 112 550 253 789 425 80 57 73 52 185 141
217 173 480 452 635 673 33 48 36 57 25 75 -13 21 -247 346 -410 571 -108 149
-138 191 -196 280 -26 39 -50 72 -55 73 -5 2 -9 10 -9 18 0 30 -21 10 -116
-108 -55 -68 -107 -132 -117 -143 -10 -11 -53 -65 -95 -120 -175 -229 -360
-404 -594 -558 -144 -96 -337 -195 -468 -242 -326 -116 -550 -154 -880 -150
-113 2 -216 6 -230 8 -14 3 -47 8 -75 12 -129 15 -372 77 -497 126 -219 85
-431 201 -603 331 -185 139 -441 410 -537 566 -12 20 -25 39 -28 42 -9 7 -122
206 -143 251 -75 161 -145 353 -172 469 0 3 -5 23 -10 45 -5 22 -9 42 -10 45
-1 3 -5 25 -9 50 -5 25 -10 54 -12 65 -25 127 -35 433 -20 585 40 404 172 780
389 1107 271 407 659 724 1108 901 127 51 299 103 389 118 14 2 34 6 46 9 12
3 39 7 60 10 21 3 45 8 52 11 71 24 546 24 662 -1 13 -2 42 -7 65 -10 75 -10
100 -16 195 -47 114 -36 309 -129 404 -192 239 -159 466 -401 699 -746 9 -14
47 -70 84 -125 77 -115 677 -954 958 -1340 104 -143 223 -307 265 -365 133
-185 203 -281 276 -379 39 -53 205 -280 369 -506 164 -225 400 -549 524 -718
124 -170 235 -321 246 -337 81 -115 481 -658 514 -698 99 -119 283 -218 441
-237 42 -5 712 -9 893 -6 l27 1 0 3173 c0 3041 -1 3175 -19 3243 -60 232 -237
406 -469 460 -55 13 -135 16 -447 16 -209 0 -390 -1 -402 -1 l-21 -1 0 -2039
c0 -2126 1 -2062 -41 -2101 -50 -46 -143 -40 -182 12 -13 18 -44 59 -69 92
-25 34 -68 93 -95 131 -27 39 -53 75 -58 80 -5 6 -36 49 -70 96 -72 101 -264
366 -424 584 -24 33 -63 87 -87 120 -47 65 -319 439 -531 730 -72 99 -188 259
-258 355 -498 686 -668 915 -722 975 -199 220 -355 355 -560 490 -370 242
-872 411 -1338 450 -40 4 -77 8 -84 10 -19 6 -450 24 -456 19z"/>
<path d="M3955 6643 c-11 -2 -60 -11 -110 -20 -102 -18 -255 -72 -327 -114
-27 -16 -51 -29 -53 -29 -5 0 -97 -61 -105 -70 -3 -3 -30 -25 -60 -50 -30 -25
-70 -63 -90 -84 -19 -22 -40 -44 -45 -50 -6 -6 -34 -42 -62 -80 -97 -131 -176
-320 -206 -496 -19 -108 -16 -347 6 -445 107 -478 463 -831 941 -932 85 -18
308 -24 401 -11 182 26 348 89 510 196 89 59 256 226 318 320 132 198 198 412
201 652 2 143 -10 236 -46 355 -12 39 -22 75 -23 80 -2 6 -19 46 -39 89 -162
346 -473 590 -856 672 -68 14 -307 26 -355 17z"/>
</g>
</svg>
